<?xml version="1.0" encoding="UTF-8" standalone="no"?>
<!-- Created with Inkscape (http://www.inkscape.org/) -->

<svg
   width="256"
   height="64"
   viewBox="0 0 67.733332 16.933333"
   version="1.1"
   id="svg5"
   xml:space="preserve"
   sodipodi:docname="rain.svg"
   inkscape:version="1.2.2 (b0a8486541, 2022-12-01)"
   xmlns:inkscape="http://www.inkscape.org/namespaces/inkscape"
   xmlns:sodipodi="http://sodipodi.sourceforge.net/DTD/sodipodi-0.dtd"
   xmlns="http://www.w3.org/2000/svg"
   xmlns:svg="http://www.w3.org/2000/svg"><sodipodi:namedview
     id="namedview6"
     pagecolor="#888888"
     bordercolor="#666666"
     borderopacity="1.0"
     inkscape:showpageshadow="2"
     inkscape:pageopacity="0"
     inkscape:pagecheckerboard="0"
     inkscape:deskcolor="#d1d1d1"
     showgrid="false"
     inkscape:zoom="3.6875"
     inkscape:cx="18.983051"
     inkscape:cy="32.135593"
     inkscape:window-width="2560"
     inkscape:window-height="1379"
     inkscape:window-x="0"
     inkscape:window-y="30"
     inkscape:window-maximized="1"
     inkscape:current-layer="svg5" /><defs
     id="defs2" /><path
     id="path1780"
     style="fill:#ffffff;fill-opacity:1;stroke-width:0.264581;-inkscape-stroke:none;stop-color:#000000"
     d="m 39.61722,1.3948638 c 2.8e-4,-2.98e-4 0.0015,4.41e-4 0.0027,0.0015 l 8.153184,8.089127 c 0.07404,0.07348 0.120006,0.148338 0.102073,0.166319 l -9.56e-4,9.56e-4 c -0.01792,0.01792 -0.09279,-0.02806 -0.166255,-0.102082 l -8.089142,-8.153145 c -0.0011,-0.0012 -0.0019,-0.0023 -0.0017,-0.0027 z" /><path
     id="path1780-6"
     style="fill:#ffffff;fill-opacity:1;stroke-width:0.264581;-inkscape-stroke:none;stop-color:#000000"
     d="m 13.54261,-0.92445316 c 2.8e-4,-2.976e-4 0.0015,4.407e-4 0.0027,0.00155 L 21.698494,7.166224 c 0.07404,0.07348 0.120006,0.148338 0.102073,0.166319 l -9.56e-4,9.56e-4 c -0.01792,0.01792 -0.09279,-0.02806 -0.166255,-0.102082 l -8.089142,-8.15319486 c -0.0011,-0.00115 -0.0019,-0.00231 -0.0017,-0.00274 z" /><path
     id="path1780-0"
     style="fill:#ffffff;fill-opacity:1;stroke-width:0.264581;-inkscape-stroke:none;stop-color:#000000"
     d="m 38.666337,7.9865243 c 1.94e-4,-2.069e-4 0.001,3.061e-4 0.0019,0.00104 l 5.659405,5.6149407 c 0.05139,0.051 0.0833,0.102966 0.07085,0.115447 l -6.63e-4,6.64e-4 c -0.01244,0.01244 -0.06441,-0.01948 -0.115404,-0.07086 L 38.667451,7.9883464 c -7.64e-4,-8.33e-4 -0.0013,-0.0016 -0.0012,-0.00187 z" /><path
     id="path1780-62"
     style="fill:#ffffff;fill-opacity:1;stroke-width:0.264581;-inkscape-stroke:none;stop-color:#000000"
     d="m 24.487101,2.0065133 c 2.8e-4,-2.976e-4 0.0015,4.407e-4 0.0027,0.00155 l 8.153184,8.0891287 c 0.07404,0.07348 0.120005,0.148337 0.102072,0.166318 l -9.56e-4,9.56e-4 c -0.01792,0.01792 -0.09279,-0.02806 -0.166255,-0.102082 l -8.08914,-8.1531954 c -0.0011,-0.00115 -0.0019,-0.00231 -0.0017,-0.00274 z" /><path
     id="path1780-61"
     style="fill:#ffffff;fill-opacity:1;stroke-width:0.264581;-inkscape-stroke:none;stop-color:#000000"
     d="m 1.2979379,7.9601121 c 2.8e-4,-2.97e-4 0.0015,4.41e-4 0.0027,0.0015 l 8.153183,8.0891279 c 0.07404,0.07348 0.120006,0.148338 0.102073,0.166319 l -9.56e-4,9.56e-4 c -0.01792,0.01792 -0.09279,-0.02806 -0.166256,-0.102082 l -8.08914,-8.1531949 c -0.0011,-0.0012 -0.0019,-0.0023 -0.0017,-0.0027 z" /><path
     id="path1780-8"
     style="fill:#ffffff;fill-opacity:1;stroke-width:0.264581;-inkscape-stroke:none;stop-color:#000000"
     d="m 34.264085,9.3980767 c 2.08e-4,-2.207e-4 0.0011,3.259e-4 0.002,0.00111 l 6.039044,5.9915943 c 0.05484,0.05443 0.08889,0.109874 0.0756,0.123193 l -7.08e-4,7.08e-4 c -0.01327,0.01327 -0.06873,-0.02078 -0.123146,-0.07561 l -5.991607,-6.03905 c -8.15e-4,-8.147e-4 -0.0014,-0.0017 -0.0013,-0.002 z" /><path
     id="path1780-7"
     style="fill:#ffffff;fill-opacity:1;stroke-width:0.264581;-inkscape-stroke:none;stop-color:#000000"
     d="m 45.834561,11.586082 c 1.76e-4,-1.88e-4 9.43e-4,2.77e-4 0.0017,9.43e-4 l 5.125084,5.084817 c 0.04654,0.04619 0.07544,0.09324 0.06416,0.104548 l -6.01e-4,6.01e-4 c -0.01126,0.01127 -0.05833,-0.01764 -0.104507,-0.06417 l -5.084828,-5.12509 c -6.91e-4,-6.92e-4 -0.0012,-0.0014 -0.0011,-0.0017 z" /><path
     id="path1780-9"
     style="fill:#ffffff;fill-opacity:1;stroke-width:0.264581;-inkscape-stroke:none;stop-color:#000000"
     d="m 59.492645,1.660998 c 2.52e-4,-2.668e-4 0.0013,3.963e-4 0.0024,0.00135 l 7.325545,7.2679894 c 0.06652,0.066021 0.107823,0.13328 0.09171,0.1494357 l -8.59e-4,8.59e-4 c -0.0161,0.016101 -0.08337,-0.025212 -0.149378,-0.091719 l -7.268004,-7.325553 c -9.88e-4,-9.883e-4 -0.0017,-0.00207 -0.0015,-0.00243 z" /><path
     id="path1780-2"
     style="fill:#ffffff;fill-opacity:1;stroke-width:0.264581;-inkscape-stroke:none;stop-color:#000000"
     d="m 19.14567,0.9290061 c 2.4e-4,-2.5426e-4 0.0013,3.7755e-4 0.0023,0.001284 l 6.980025,6.9251852 c 0.06339,0.062907 0.102738,0.1269937 0.08739,0.1423874 l -8.18e-4,8.185e-4 c -0.01534,0.015341 -0.07944,-0.024023 -0.142333,-0.087394 L 19.147043,0.93125425 c -9.42e-4,-9.4172e-4 -0.0016,-0.001969 -0.0015,-0.002311 z" /><path
     id="path1780-02"
     style="fill:#ffffff;fill-opacity:1;stroke-width:0.264581;-inkscape-stroke:none;stop-color:#000000"
     d="m 17.100373,7.0106406 c 1.26e-4,-1.345e-4 6.77e-4,1.986e-4 0.0012,6.77e-4 l 3.679976,3.6510634 c 0.03342,0.03317 0.05417,0.06695 0.04607,0.07507 l -4.32e-4,4.31e-4 c -0.0081,0.0081 -0.04188,-0.01267 -0.07504,-0.04608 l -3.65105,-3.6799766 c -4.97e-4,-4.965e-4 -8.58e-4,-0.00104 -7.68e-4,-0.00122 z" /><path
     id="path1780-3"
     style="fill:#ffffff;fill-opacity:1;stroke-width:0.264581;-inkscape-stroke:none;stop-color:#000000"
     d="m 30.631939,1.7767078 c 1.91e-4,-2.03e-4 0.001,3.004e-4 0.0018,0.00102 l 5.554046,5.5104101 c 0.05044,0.050056 0.08175,0.1010498 0.06953,0.1132986 l -6.52e-4,6.513e-4 c -0.01221,0.012207 -0.06321,-0.019115 -0.113254,-0.06954 L 30.633032,1.778496 c -7.49e-4,-8.175e-4 -0.0013,-0.00157 -0.0012,-0.00184 z" /><path
     id="path1780-3-4"
     style="fill:#ffffff;fill-opacity:1;stroke-width:0.264581;-inkscape-stroke:none;stop-color:#000000"
     d="m 23.168716,9.670406 c 1.93e-4,-2.058e-4 0.001,3.045e-4 0.0019,0.00104 l 5.629615,5.585385 c 0.05112,0.05074 0.08286,0.102425 0.07048,0.11484 l -6.6e-4,6.6e-4 c -0.01237,0.01237 -0.06407,-0.01938 -0.114796,-0.07048 L 23.169824,9.6722185 c -7.59e-4,-8.286e-4 -0.0013,-0.00159 -0.0012,-0.00186 z" /><path
     id="path1780-75"
     style="fill:#ffffff;fill-opacity:1;stroke-width:0.264581;-inkscape-stroke:none;stop-color:#000000"
     d="m 47.135441,1.9141245 c 1.59e-4,-1.691e-4 8.53e-4,2.509e-4 0.0015,8.536e-4 l 4.640153,4.6036974 c 0.04214,0.041819 0.0683,0.084422 0.05809,0.094656 l -5.44e-4,5.441e-4 c -0.0102,0.010199 -0.05281,-0.01597 -0.09462,-0.058097 L 47.136354,1.9156184 c -6.26e-4,-6.829e-4 -0.0011,-0.00131 -9.67e-4,-0.00154 z" /><path
     id="path1780-92"
     style="fill:#ffffff;fill-opacity:1;stroke-width:0.264581;-inkscape-stroke:none;stop-color:#000000"
     d="m 54.370247,6.2047218 c 2.8e-4,-2.976e-4 0.0015,4.407e-4 0.0027,0.00155 l 8.153184,8.0891262 c 0.07404,0.07348 0.120006,0.148338 0.102073,0.166319 l -9.56e-4,9.56e-4 c -0.01792,0.01792 -0.09279,-0.02806 -0.166255,-0.102082 L 54.371852,6.2073971 c -0.0012,-0.00115 -0.0018,-0.00231 -0.0017,-0.00274 z" /><path
     id="path1780-92-9"
     style="fill:#ffffff;fill-opacity:1;stroke-width:0.264581;-inkscape-stroke:none;stop-color:#000000"
     d="m 52.160259,10.377075 c 1.94e-4,-2.07e-4 10e-4,3.07e-4 0.0019,0.0011 l 5.67515,5.630561 c 0.05154,0.05115 0.08353,0.103253 0.07105,0.115769 l -6.66e-4,6.66e-4 c -0.01247,0.01247 -0.06459,-0.01953 -0.115724,-0.07106 l -5.630593,-5.675154 c -8.36e-4,-8e-4 -0.0013,-0.0016 -0.0012,-0.0019 z" /><path
     id="path1780-28"
     style="fill:#ffffff;fill-opacity:1;stroke-width:0.264581;-inkscape-stroke:none;stop-color:#000000"
     d="m 5.3060188,1.8803683 c 2.8e-4,-2.97e-4 0.0015,4.41e-4 0.0027,0.0015 l 8.1531852,8.0891278 c 0.07404,0.07348 0.120005,0.1483379 0.102072,0.1663189 l -9.56e-4,9.56e-4 c -0.01792,0.01792 -0.09279,-0.02806 -0.166255,-0.102082 L 5.3076238,1.8830433 c -0.0011,-0.0012 -0.0019,-0.0023 -0.0017,-0.0027 z" /><path
     id="path1780-97"
     style="fill:#ffffff;fill-opacity:1;stroke-width:0.264581;-inkscape-stroke:none;stop-color:#000000"
     d="m 12.530632,7.7452925 c 2.8e-4,-2.976e-4 0.0015,4.407e-4 0.0027,0.00155 l 8.153184,8.0891265 c 0.07404,0.07348 0.120006,0.148338 0.102073,0.166319 l -9.56e-4,9.56e-4 c -0.01792,0.01792 -0.09279,-0.02806 -0.166256,-0.102082 L 12.532236,7.7479678 c -0.0011,-0.00115 -0.0019,-0.00231 -0.0017,-0.00274 z" /></svg>
