<?xml version="1.0" encoding="UTF-8" standalone="no"?>
<svg
   id="svg4379"
   height="128"
   width="128"
   version="1.1"
   xmlns:xlink="http://www.w3.org/1999/xlink"
   xmlns="http://www.w3.org/2000/svg"
   xmlns:svg="http://www.w3.org/2000/svg"
   xmlns:rdf="http://www.w3.org/1999/02/22-rdf-syntax-ns#"
   xmlns:cc="http://creativecommons.org/ns#"
   xmlns:dc="http://purl.org/dc/elements/1.1/">
  <defs
     id="defs4381">
    <linearGradient
       gradientTransform="matrix(2.7297298,0,0,2.7297298,-1.5135124,1.486514)"
       gradientUnits="userSpaceOnUse"
       xlink:href="#linearGradient3924-776"
       id="linearGradient3159"
       y2="43"
       x2="23.99999"
       y1="4.999989"
       x1="23.99999" />
    <linearGradient
       id="linearGradient3924-776">
      <stop
         offset="0"
         style="stop-color:#ffffff;stop-opacity:1"
         id="stop3124" />
      <stop
         offset="0.06316455"
         style="stop-color:#ffffff;stop-opacity:0.23529412"
         id="stop3126" />
      <stop
         offset="0.95056331"
         style="stop-color:#ffffff;stop-opacity:0.15686275"
         id="stop3128" />
      <stop
         offset="1"
         style="stop-color:#ffffff;stop-opacity:0.39215687"
         id="stop3130" />
    </linearGradient>
    <radialGradient
       gradientTransform="matrix(2.003784,0,0,1.4,27.98813,-17.4)"
       gradientUnits="userSpaceOnUse"
       xlink:href="#linearGradient3688-166-749-5"
       id="radialGradient2455-1"
       fy="43.5"
       fx="4.9929786"
       r="2.5"
       cy="43.5"
       cx="4.9929786" />
    <linearGradient
       id="linearGradient3688-166-749-5">
      <stop
         offset="0"
         style="stop-color:#181818;stop-opacity:1"
         id="stop2883-0" />
      <stop
         offset="1"
         style="stop-color:#181818;stop-opacity:0"
         id="stop2885-5" />
    </linearGradient>
    <radialGradient
       gradientTransform="matrix(2.003784,0,0,1.4,-20.01187,-104.4)"
       gradientUnits="userSpaceOnUse"
       xlink:href="#linearGradient3688-464-309-8"
       id="radialGradient2457-5"
       fy="43.5"
       fx="4.9929786"
       r="2.5"
       cy="43.5"
       cx="4.9929786" />
    <linearGradient
       id="linearGradient3688-464-309-8">
      <stop
         offset="0"
         style="stop-color:#181818;stop-opacity:1"
         id="stop2889-9" />
      <stop
         offset="1"
         style="stop-color:#181818;stop-opacity:0"
         id="stop2891-4" />
    </linearGradient>
    <linearGradient
       gradientUnits="userSpaceOnUse"
       xlink:href="#linearGradient3702-501-757-0"
       id="linearGradient2459-7"
       y2="39.999443"
       x2="25.058096"
       y1="47.027729"
       x1="25.058096" />
    <linearGradient
       id="linearGradient3702-501-757-0">
      <stop
         offset="0"
         style="stop-color:#181818;stop-opacity:0"
         id="stop2895-0" />
      <stop
         offset="0.5"
         style="stop-color:#181818;stop-opacity:1"
         id="stop2897-2" />
      <stop
         offset="1"
         style="stop-color:#181818;stop-opacity:0"
         id="stop2899-6" />
    </linearGradient>
    <linearGradient
       id="linearGradient3811">
      <stop
         offset="0"
         style="stop-color:#000000;stop-opacity:1"
         id="stop3813" />
      <stop
         offset="1"
         style="stop-color:#000000;stop-opacity:0"
         id="stop3815" />
    </linearGradient>
    <radialGradient
       gradientTransform="matrix(1.5563924,0,0,0.16978827,70.270358,102.13029)"
       gradientUnits="userSpaceOnUse"
       xlink:href="#linearGradient3811"
       id="radialGradient4377"
       fy="93.467628"
       fx="-4.0287771"
       r="35.338131"
       cy="93.467628"
       cx="-4.0287771" />
    <linearGradient
       xlink:href="#linearGradient909"
       id="linearGradient882"
       x1="62.871635"
       y1="15.90732"
       x2="62.871635"
       y2="118.42699"
       gradientUnits="userSpaceOnUse"
       gradientTransform="translate(0,-134)" />
    <linearGradient
       id="linearGradient909">
      <stop
         id="stop901"
         style="stop-color:#64baff;stop-opacity:1"
         offset="0" />
      <stop
         id="stop907"
         style="stop-color:#3689e6;stop-opacity:1"
         offset="1" />
    </linearGradient>
  </defs>
  <metadata
     id="metadata4384">
    <rdf:RDF>
      <cc:Work
         rdf:about="">
        <dc:format>image/svg+xml</dc:format>
        <dc:type
           rdf:resource="http://purl.org/dc/dcmitype/StillImage" />
      </cc:Work>
    </rdf:RDF>
  </metadata>
  <path
     d="M 119,118 A 55,6 0 0 1 9.0000016,118 55,6 0 1 1 119,118 Z"
     id="path3041"
     style="color:#000000;display:inline;overflow:visible;visibility:visible;opacity:0.2;fill:url(#radialGradient4377);fill-opacity:1;fill-rule:nonzero;stroke:none;stroke-width:1;marker:none;enable-background:accumulate" />
  <g
     transform="matrix(2.6999989,0,0,0.55555607,-0.8000019,94.888882)"
     id="g2036"
     style="display:inline">
    <g
       transform="matrix(1.052632,0,0,1.285713,-1.263158,-13.42854)"
       id="g3712"
       style="opacity:0.4">
      <rect
         width="5"
         height="7"
         x="38"
         y="40"
         id="rect2801"
         style="fill:url(#radialGradient2455-1);fill-opacity:1;stroke:none" />
      <rect
         width="5"
         height="7"
         x="-10"
         y="-47"
         transform="scale(-1,-1)"
         id="rect3696"
         style="fill:url(#radialGradient2457-5);fill-opacity:1;stroke:none" />
      <rect
         width="28"
         height="7.0000005"
         x="10"
         y="40"
         id="rect3700"
         style="fill:url(#linearGradient2459-7);fill-opacity:1;stroke:none" />
    </g>
  </g>
  <rect
     width="103"
     height="103"
     rx="10"
     ry="10"
     x="12.5"
     y="-118.5"
     id="rect5505-21-3"
     style="color:#000000;display:inline;overflow:visible;visibility:visible;fill:url(#linearGradient882);fill-opacity:1;fill-rule:nonzero;stroke:#0d52bf;stroke-width:1;stroke-opacity:0.5;marker:none;enable-background:accumulate"
     transform="scale(1,-1)" />
  <rect
     width="101"
     height="101"
     rx="9"
     ry="9"
     x="13.5"
     y="16.5"
     id="rect6741-7"
     style="opacity:0.3;fill:none;stroke:url(#linearGradient3159);stroke-width:1;stroke-linecap:round;stroke-linejoin:round;stroke-miterlimit:4;stroke-dasharray:none;stroke-dashoffset:0;stroke-opacity:1" />
  <path
     d="m 69.605469,44.023438 c -5.718889,0 -10.644471,3.13757 -13.375,7.705078 C 54.68258,50.919214 52.965179,50.375 51.095703,50.375 c -6.165199,0 -11.189452,4.996049 -11.189453,11.138672 0,0.771803 0.153389,1.484287 0.304688,2.191406 -4.034719,2.949144 -6.6875,7.675989 -6.6875,13.050781 0,8.971145 7.286814,16.220704 16.294921,16.220703 h 29.363282 c 9.008124,0 16.294921,-7.249559 16.294921,-16.220703 0,-6.878166 -4.34321,-12.645968 -10.404296,-15.005859 0.09567,-0.708047 0.191406,-1.41536 0.191406,-2.142578 0,-8.598093 -7.025375,-15.583984 -15.658203,-15.583984 z"
     id="path4419"
     style="color:#000000;clip-rule:nonzero;display:inline;overflow:visible;visibility:visible;opacity:0.15;isolation:auto;mix-blend-mode:normal;color-interpolation:sRGB;color-interpolation-filters:linearRGB;solid-color:#000000;solid-opacity:1;fill:#002e99;fill-opacity:1;fill-rule:nonzero;stroke:none;stroke-width:1;stroke-linecap:butt;stroke-linejoin:miter;stroke-miterlimit:4;stroke-dasharray:none;stroke-dashoffset:0;stroke-opacity:1;marker:none;color-rendering:auto;image-rendering:auto;shape-rendering:auto;text-rendering:auto;enable-background:accumulate" />
  <path
     style="color:#000000;clip-rule:nonzero;display:inline;overflow:visible;visibility:visible;opacity:0.3;isolation:auto;mix-blend-mode:normal;color-interpolation:sRGB;color-interpolation-filters:linearRGB;solid-color:#000000;solid-opacity:1;fill:#002e99;fill-opacity:1;fill-rule:nonzero;stroke:none;stroke-width:1;stroke-linecap:butt;stroke-linejoin:miter;stroke-miterlimit:4;stroke-dasharray:none;stroke-dashoffset:0;stroke-opacity:1;marker:none;color-rendering:auto;image-rendering:auto;shape-rendering:auto;text-rendering:auto;enable-background:accumulate"
     id="rect4519-6"
     d="m 69.606388,45 c -5.683429,0 -10.605474,3.238631 -13.045215,7.939224 -1.581283,-0.999813 -3.453159,-1.587817 -5.465418,-1.587817 -5.640335,0 -10.212759,4.549652 -10.212759,10.162148 0,0.892303 0.141883,1.755573 0.359029,2.580178 -4.073648,2.733955 -6.742024,7.385058 -6.742024,12.662966 C 34.500001,85.20145 41.332343,92 49.819132,92 h 29.361721 c 8.486807,0 15.319148,-6.79855 15.319148,-15.243301 0,-6.743473 -4.375095,-12.428854 -10.452159,-14.449314 0.164824,-0.876411 0.239382,-1.775173 0.239382,-2.699227 C 84.287224,51.540242 77.714418,45 69.606406,45 Z" />
  <path
     style="color:#000000;display:inline;overflow:visible;visibility:visible;fill:#ffffff;fill-opacity:1;fill-rule:nonzero;stroke:none;stroke-width:1;stroke-linecap:butt;stroke-linejoin:miter;stroke-miterlimit:4;stroke-dasharray:none;stroke-dashoffset:0;stroke-opacity:1;marker:none;enable-background:accumulate"
     id="rect4519"
     d="m 69.606388,44 c -5.683429,0 -10.605474,3.238631 -13.045215,7.939224 -1.581283,-0.999813 -3.453159,-1.587817 -5.465418,-1.587817 -5.640335,0 -10.212759,4.549652 -10.212759,10.162148 0,0.892303 0.141883,1.755573 0.359029,2.580178 -4.073648,2.733955 -6.742024,7.385058 -6.742024,12.662966 C 34.500001,84.20145 41.332343,91 49.819132,91 h 29.361721 c 8.486807,0 15.319148,-6.79855 15.319148,-15.243301 0,-6.743473 -4.375095,-12.428854 -10.452159,-14.449314 0.164824,-0.876411 0.239382,-1.775173 0.239382,-2.699227 C 84.287224,50.540242 77.714418,44 69.606406,44 Z" />
  <path
     id="rect4519-5-5"
     style="color:#000000;font-variation-settings:normal;display:inline;overflow:visible;visibility:visible;opacity:0.07;vector-effect:none;fill:#002e99;fill-opacity:1;fill-rule:nonzero;stroke:none;stroke-width:1;stroke-linecap:butt;stroke-linejoin:miter;stroke-miterlimit:4;stroke-dasharray:none;stroke-dashoffset:0;stroke-opacity:1;-inkscape-stroke:none;marker:none;enable-background:accumulate;stop-color:#000000;stop-opacity:1"
     d="M 34.949219,79.378906 C 36.577268,86.060216 42.589255,91 49.818359,91 h 29.363282 c 7.22912,0 13.241091,-4.939784 14.86914,-11.621094 -2.543152,5.65758 -8.233768,9.597656 -14.86914,9.597656 H 49.818359 c -6.635359,10e-7 -12.325984,-3.940076 -14.86914,-9.597656 z" />
  <path
     id="rect4519-5"
     style="color:#000000;font-variation-settings:normal;display:inline;overflow:visible;visibility:visible;opacity:0.15;vector-effect:none;fill:#002e99;fill-opacity:1;fill-rule:nonzero;stroke:none;stroke-width:1;stroke-linecap:butt;stroke-linejoin:miter;stroke-miterlimit:4;stroke-dasharray:none;stroke-dashoffset:0;stroke-opacity:1;-inkscape-stroke:none;marker:none;enable-background:accumulate;stop-color:#000000;stop-opacity:1"
     d="m 84.271484,57.984375 c -0.01796,0.790898 -0.08247,1.566496 -0.224609,2.322266 0.04377,0.01455 0.08531,0.03389 0.128906,0.04883 0.06572,-0.573592 0.111328,-1.154355 0.111328,-1.748047 0,-0.208896 -0.0069,-0.416286 -0.01563,-0.623047 z m -43.367187,2.099609 c -0.006,0.143574 -0.02148,0.284634 -0.02148,0.429688 0,0.586203 0.06439,1.158385 0.167969,1.716797 0.06439,-0.04467 0.126295,-0.09302 0.191407,-0.136719 -0.170525,-0.647561 -0.292459,-1.319181 -0.337891,-2.009766 z M 34.513672,75.318359 C 34.509549,75.464546 34.5,75.60867 34.5,75.755859 34.5,84.200602 41.331579,91 49.818359,91 H 79.181641 C 87.668439,91 94.5,84.200602 94.5,75.755859 c 0,-0.12776 -0.0125,-0.251923 -0.01563,-0.378906 C 94.158798,83.531216 87.459163,90 79.181641,90 H 49.818359 C 41.521108,90 34.809495,83.500115 34.513672,75.318359 Z" />
</svg>
