<?xml version="1.0" encoding="UTF-8" standalone="no"?>
<svg
   version="1.1"
   width="32"
   height="32"
   id="svg6860"
   xml:space="preserve"
   xmlns:xlink="http://www.w3.org/1999/xlink"
   xmlns="http://www.w3.org/2000/svg"
   xmlns:svg="http://www.w3.org/2000/svg"
   xmlns:rdf="http://www.w3.org/1999/02/22-rdf-syntax-ns#"
   xmlns:cc="http://creativecommons.org/ns#"
   xmlns:dc="http://purl.org/dc/elements/1.1/"><defs
     id="defs6862"><linearGradient
       id="linearGradient3924-0"><stop
         id="stop3926-6"
         style="stop-color:#ffffff;stop-opacity:1"
         offset="0" /><stop
         id="stop3928-3"
         style="stop-color:#ffffff;stop-opacity:0.23529412"
         offset="0.04166666" /><stop
         id="stop3930-2"
         style="stop-color:#ffffff;stop-opacity:0.15686275"
         offset="0.95833325" /><stop
         id="stop3932-62"
         style="stop-color:#ffffff;stop-opacity:0.39215687"
         offset="1" /></linearGradient><linearGradient
       id="linearGradient3688-166-749-6"><stop
         id="stop2883-8"
         style="stop-color:#181818;stop-opacity:1"
         offset="0" /><stop
         id="stop2885-3"
         style="stop-color:#181818;stop-opacity:0"
         offset="1" /></linearGradient><linearGradient
       id="linearGradient3702-501-757-3"><stop
         id="stop2895-3"
         style="stop-color:#181818;stop-opacity:0"
         offset="0" /><stop
         id="stop2897-28"
         style="stop-color:#181818;stop-opacity:1"
         offset="0.5" /><stop
         id="stop2899-8"
         style="stop-color:#181818;stop-opacity:0"
         offset="1" /></linearGradient><radialGradient
       cx="4.9929786"
       cy="43.5"
       r="2.5"
       fx="4.9929786"
       fy="43.5"
       id="radialGradient2976-3-3"
       xlink:href="#linearGradient3688-166-749-6"
       gradientUnits="userSpaceOnUse"
       gradientTransform="matrix(2.003784,0,0,1.4,27.98813,-17.4)" /><radialGradient
       cx="4.9929786"
       cy="43.5"
       r="2.5"
       fx="4.9929786"
       fy="43.5"
       id="radialGradient2978-2-5"
       xlink:href="#linearGradient3688-166-749-6"
       gradientUnits="userSpaceOnUse"
       gradientTransform="matrix(2.003784,0,0,1.4,-20.01187,-104.4)" /><linearGradient
       xlink:href="#linearGradient909-3"
       id="linearGradient930-9-2"
       x1="16.767664"
       y1="2.7676599"
       x2="16.767664"
       y2="29.896721"
       gradientUnits="userSpaceOnUse"
       gradientTransform="translate(4.1936035e-6,-32)" /><linearGradient
       x1="23.99999"
       y1="6.2399855"
       x2="23.99999"
       y2="41.759987"
       id="linearGradient4161-0-2"
       xlink:href="#linearGradient3924-0"
       gradientUnits="userSpaceOnUse"
       gradientTransform="matrix(0.67567568,0,0,0.67567568,-0.21621281,-0.21620614)" /><linearGradient
       xlink:href="#linearGradient3702-501-757-3"
       id="linearGradient963"
       gradientUnits="userSpaceOnUse"
       x1="25.058096"
       y1="47.027729"
       x2="25.058096"
       y2="39.999443" /><linearGradient
       id="linearGradient909-3"><stop
         id="stop901-6"
         style="stop-color:#64baff;stop-opacity:1"
         offset="0" /><stop
         id="stop907-7"
         style="stop-color:#3689e6;stop-opacity:1"
         offset="1" /></linearGradient></defs><metadata
     id="metadata6865"><rdf:RDF><cc:Work
         rdf:about=""><dc:format>image/svg+xml</dc:format><dc:type
           rdf:resource="http://purl.org/dc/dcmitype/StillImage" /></cc:Work></rdf:RDF></metadata><g
     style="display:inline"
     id="g2036-2-8-6"
     transform="matrix(0.6999997,0,0,0.3333336,-0.79999581,15.33333)"><g
       style="opacity:0.4"
       id="g3712-3-7-0"
       transform="matrix(1.052632,0,0,1.285713,-1.263158,-13.42854)"><rect
         style="fill:url(#radialGradient2976-3-3);fill-opacity:1;stroke:none"
         id="rect2801-0-9-6"
         y="40"
         x="38"
         height="7"
         width="5" /><rect
         style="fill:url(#radialGradient2978-2-5);fill-opacity:1;stroke:none"
         id="rect3696-2-2-2"
         transform="scale(-1)"
         y="-47"
         x="-10"
         height="7"
         width="5" /><rect
         style="fill:url(#linearGradient963);fill-opacity:1;stroke:none"
         id="rect3700-1-0-6"
         y="40"
         x="10"
         height="7.0000005"
         width="28" /></g></g><rect
     style="color:#000000;font-variation-settings:normal;display:inline;overflow:visible;visibility:visible;opacity:1;vector-effect:none;fill:url(#linearGradient930-9-2);fill-opacity:1;fill-rule:nonzero;stroke:#0d52bf;stroke-width:1;stroke-linecap:butt;stroke-linejoin:miter;stroke-miterlimit:4;stroke-dasharray:none;stroke-dashoffset:0;stroke-opacity:0.5;marker:none;enable-background:accumulate;stop-color:#000000;stop-opacity:1"
     id="rect5505-21-1-2-1"
     y="-29.500004"
     x="2.5"
     ry="3"
     rx="3"
     height="27.000008"
     width="27.000008"
     transform="scale(1,-1)" /><rect
     style="opacity:0.35;fill:none;stroke:url(#linearGradient4161-0-2);stroke-width:1;stroke-linecap:round;stroke-linejoin:round;stroke-miterlimit:4;stroke-dasharray:none;stroke-dashoffset:0;stroke-opacity:1"
     id="rect6741-7-4-3-8"
     y="3.4999998"
     x="3.5000038"
     ry="2"
     rx="2"
     height="25"
     width="25" /><path
     d="m 17.53125,9.0273438 c -1.770241,0 -3.227028,0.9613064 -4.207031,2.2792972 -0.438505,-0.162234 -0.852295,-0.386719 -1.345703,-0.386719 -2.2105881,0 -4.0371097,1.794184 -4.0371098,3.998047 0,0.176052 0.043572,0.319261 0.066406,0.480469 -1.1596057,1.010815 -1.9804687,2.412019 -1.9804687,4.060546 0,3.04359 2.506664,5.513672 5.5683595,5.513672 h 8.808594 c 3.061695,0 5.568359,-2.470082 5.568359,-5.513672 0,-2.146368 -1.277129,-3.951164 -3.085937,-4.859375 0.0033,-0.08217 0.02148,-0.166488 0.02148,-0.248047 0,-2.935037 -2.425379,-5.3242183 -5.376953,-5.3242182 z"
     id="path4310"
     style="color:#000000;font-variation-settings:normal;clip-rule:nonzero;display:inline;overflow:visible;visibility:visible;opacity:0.15;isolation:auto;mix-blend-mode:normal;color-interpolation:sRGB;color-interpolation-filters:linearRGB;solid-color:#000000;solid-opacity:1;vector-effect:none;fill:#002e99;fill-opacity:1;fill-rule:nonzero;stroke:none;stroke-width:1;stroke-linecap:butt;stroke-linejoin:miter;stroke-miterlimit:4;stroke-dasharray:none;stroke-dashoffset:0;stroke-opacity:1;-inkscape-stroke:none;marker:none;color-rendering:auto;image-rendering:auto;shape-rendering:auto;text-rendering:auto;enable-background:accumulate;stop-color:#000000;stop-opacity:1" /><path
     style="color:#000000;font-variation-settings:normal;clip-rule:nonzero;display:inline;overflow:visible;visibility:visible;opacity:0.3;isolation:auto;mix-blend-mode:normal;color-interpolation:sRGB;color-interpolation-filters:linearRGB;solid-color:#000000;solid-opacity:1;vector-effect:none;fill:#002e99;fill-opacity:1;fill-rule:nonzero;stroke:none;stroke-width:1;stroke-linecap:butt;stroke-linejoin:miter;stroke-miterlimit:4;stroke-dasharray:none;stroke-dashoffset:0;stroke-opacity:1;-inkscape-stroke:none;marker:none;color-rendering:auto;image-rendering:auto;shape-rendering:auto;text-rendering:auto;enable-background:accumulate;stop-color:#000000;stop-opacity:1"
     id="rect4519-5"
     d="m 17.531918,10.000001 c -1.705029,0 -3.181649,0.964698 -3.913566,2.36487 -0.474384,-0.297813 -1.035953,-0.472965 -1.63963,-0.472965 -1.692101,0 -3.0638228,1.355219 -3.0638228,3.027025 0,0.265791 0.042566,0.522938 0.1077079,0.768562 C 7.8005186,16.501864 7,17.887298 7,19.459442 7,21.974898 9.049702,24 11.595744,24 h 8.808517 C 22.950303,24 25,21.974898 25,19.459442 c 0,-2.008694 -1.312522,-3.702213 -3.135642,-4.304051 0.04945,-0.261061 0.07182,-0.528775 0.07182,-0.804025 C 21.936178,11.948155 19.96433,10 17.531926,10 Z" /><path
     style="color:#000000;display:inline;overflow:visible;visibility:visible;fill:#ffffff;fill-opacity:1;fill-rule:nonzero;stroke:none;stroke-width:1;stroke-linecap:butt;stroke-linejoin:miter;stroke-miterlimit:4;stroke-dasharray:none;stroke-dashoffset:0;stroke-opacity:1;marker:none;enable-background:accumulate"
     id="rect4519-18"
     d="m 17.531918,9.000001 c -1.705029,0 -3.181649,0.9646983 -3.913566,2.36487 -0.474384,-0.297813 -1.035953,-0.472965 -1.63963,-0.472965 -1.692101,0 -3.0638228,1.355219 -3.0638228,3.027025 0,0.265791 0.042566,0.522938 0.1077079,0.768562 C 7.8005186,15.501864 7,16.887298 7,18.459442 7,20.974898 9.049702,23 11.595744,23 h 8.808517 C 22.950303,23 25,20.974898 25,18.459442 c 0,-2.008694 -1.312522,-3.702213 -3.135642,-4.304051 0.04945,-0.261061 0.07182,-0.528775 0.07182,-0.804025 C 21.936178,10.948155 19.96433,9 17.531926,9 Z" /><path
     id="rect4519-18-2-2"
     style="color:#000000;font-variation-settings:normal;display:inline;overflow:visible;visibility:visible;opacity:0.07;vector-effect:none;fill:#002e99;fill-opacity:1;fill-rule:nonzero;stroke:none;stroke-width:1;stroke-linecap:butt;stroke-linejoin:miter;stroke-miterlimit:4;stroke-dasharray:none;stroke-dashoffset:0;stroke-opacity:1;-inkscape-stroke:none;marker:none;enable-background:accumulate;stop-color:#000000;stop-opacity:1"
     d="m 7.0019531,18.569968 c 0.059599,2.463451 2.0854963,4.429688 4.5937499,4.429688 h 8.808594 c 2.508254,0 4.534151,-1.966237 4.59375,-4.429688 -1.00592,1.450407 -2.692847,2.402344 -4.59375,2.402344 h -8.808594 c -1.9009033,0 -3.5878303,-0.951937 -4.5937499,-2.402344 z" /><path
     id="rect4519-18-2"
     style="color:#000000;font-variation-settings:normal;display:inline;overflow:visible;visibility:visible;opacity:0.15;vector-effect:none;fill:#002e99;fill-opacity:1;fill-rule:nonzero;stroke:none;stroke-width:1;stroke-linecap:butt;stroke-linejoin:miter;stroke-miterlimit:4;stroke-dasharray:none;stroke-dashoffset:0;stroke-opacity:1;-inkscape-stroke:none;marker:none;enable-background:accumulate;stop-color:#000000;stop-opacity:1"
     d="m 21.90625,12.851218 c -0.01127,0.102346 -0.02201,0.204358 -0.04102,0.304688 0.02272,0.0075 0.04385,0.01755 0.06641,0.02539 -0.0043,-0.111344 -0.01276,-0.221033 -0.02539,-0.330079 z M 8.9609375,13.409812 c -0.019605,0.114256 -0.030851,0.231379 -0.037109,0.34961 0.033409,-0.02359 0.065537,-0.04956 0.099609,-0.07227 -0.024107,-0.0909 -0.04559,-0.183437 -0.0625,-0.277344 z M 7.0292969,17.966453 C 7.0117568,18.128457 7,18.291983 7,18.45864 c 0,2.515454 2.0496637,4.541016 4.595703,4.541016 h 8.808594 C 22.950336,22.999656 25,20.974094 25,18.45864 c 0,-0.164471 -0.01214,-0.324556 -0.0293,-0.484375 -0.257213,2.271279 -2.196621,4.025391 -4.566406,4.025391 h -8.808594 c -2.3724833,0 -4.312737,-1.758161 -4.5664061,-4.033203 z" /></svg>
