<?xml version="1.0" encoding="UTF-8" standalone="no"?>
<svg
   version="1.1"
   width="48"
   height="48"
   id="svg6649"
   xml:space="preserve"
   xmlns:xlink="http://www.w3.org/1999/xlink"
   xmlns="http://www.w3.org/2000/svg"
   xmlns:svg="http://www.w3.org/2000/svg"
   xmlns:rdf="http://www.w3.org/1999/02/22-rdf-syntax-ns#"
   xmlns:cc="http://creativecommons.org/ns#"
   xmlns:dc="http://purl.org/dc/elements/1.1/"><defs
     id="defs6651"><linearGradient
       id="linearGradient1201"><stop
         id="stop1193"
         style="stop-color:#ffffff;stop-opacity:1"
         offset="0" /><stop
         id="stop1195"
         style="stop-color:#ffffff;stop-opacity:0.23529412"
         offset="0.06781636" /><stop
         id="stop1197"
         style="stop-color:#ffffff;stop-opacity:0.15686275"
         offset="0.94694352" /><stop
         id="stop1199"
         style="stop-color:#ffffff;stop-opacity:0.39215687"
         offset="1" /></linearGradient><linearGradient
       id="linearGradient3688-166-749"><stop
         id="stop2883"
         style="stop-color:#181818;stop-opacity:1"
         offset="0" /><stop
         id="stop2885"
         style="stop-color:#181818;stop-opacity:0"
         offset="1" /></linearGradient><linearGradient
       id="linearGradient3702-501-757"><stop
         id="stop2895"
         style="stop-color:#181818;stop-opacity:0"
         offset="0" /><stop
         id="stop2897"
         style="stop-color:#181818;stop-opacity:1"
         offset="0.5" /><stop
         id="stop2899"
         style="stop-color:#181818;stop-opacity:0"
         offset="1" /></linearGradient><radialGradient
       cx="4.9929786"
       cy="43.5"
       r="2.5"
       fx="4.9929786"
       fy="43.5"
       id="radialGradient3013-6"
       xlink:href="#linearGradient3688-166-749"
       gradientUnits="userSpaceOnUse"
       gradientTransform="matrix(2.003784,0,0,0.89999994,29.98813,4.8500025)" /><radialGradient
       cx="4.9929786"
       cy="43.5"
       r="2.5"
       fx="4.9929786"
       fy="43.5"
       id="radialGradient3015-1"
       xlink:href="#linearGradient3688-166-749"
       gradientUnits="userSpaceOnUse"
       gradientTransform="matrix(2.003784,0,0,0.89999994,-18.01187,-83.149997)" /><linearGradient
       x1="38.999996"
       y1="5.9999938"
       x2="38.999996"
       y2="41.945408"
       id="linearGradient3058-5"
       xlink:href="#linearGradient1201"
       gradientUnits="userSpaceOnUse"
       gradientTransform="translate(4e-6,1.0000062)" /><linearGradient
       xlink:href="#linearGradient3702-501-757"
       id="linearGradient1191"
       gradientUnits="userSpaceOnUse"
       x1="25.058096"
       y1="47.027729"
       x2="25.058096"
       y2="39.999443"
       gradientTransform="matrix(1.1428571,0,0,0.6428571,-3.428569,16.035716)" /><linearGradient
       xlink:href="#linearGradient909-3"
       id="linearGradient930-9-2"
       x1="16.767664"
       y1="2.7676599"
       x2="16.767664"
       y2="29.896721"
       gradientUnits="userSpaceOnUse"
       gradientTransform="matrix(1.444444,0,0,1.444444,0.888913,-48.111099)" /><linearGradient
       id="linearGradient909-3"><stop
         id="stop901-6"
         style="stop-color:#64baff;stop-opacity:1"
         offset="0" /><stop
         id="stop907-7"
         style="stop-color:#3689e6;stop-opacity:1"
         offset="1" /></linearGradient></defs><metadata
     id="metadata6654"><rdf:RDF><cc:Work
         rdf:about=""><dc:format>image/svg+xml</dc:format><dc:type
           rdf:resource="http://purl.org/dc/dcmitype/StillImage" /></cc:Work></rdf:RDF></metadata><rect
     style="opacity:0.6;fill:url(#radialGradient3013-6);fill-opacity:1;stroke:none;stroke-width:0.862764"
     id="rect2801-3-7"
     y="41.75"
     x="40"
     height="4.4999995"
     width="5" /><rect
     style="opacity:0.6;fill:url(#radialGradient3015-1);fill-opacity:1;stroke:none;stroke-width:0.862764"
     id="rect3696-6-3"
     transform="scale(-1)"
     y="-46.25"
     x="-8"
     height="4.4999995"
     width="5" /><rect
     style="opacity:0.6;fill:url(#linearGradient1191);fill-opacity:1;stroke:none;stroke-width:0.862764"
     id="rect3700-4-6"
     y="41.75"
     x="8"
     height="4.5"
     width="32" /><rect
     style="color:#000000;font-variation-settings:normal;display:inline;overflow:visible;visibility:visible;opacity:1;vector-effect:none;fill:url(#linearGradient930-9-2);fill-opacity:1;fill-rule:nonzero;stroke:#0d52bf;stroke-width:1;stroke-linecap:butt;stroke-linejoin:miter;stroke-miterlimit:4;stroke-dasharray:none;stroke-dashoffset:0;stroke-opacity:0.5;marker:none;enable-background:accumulate;stop-color:#000000;stop-opacity:1"
     id="rect5505-21-1"
     y="-44.499996"
     x="4.5000153"
     ry="4"
     rx="4"
     height="39"
     width="39"
     transform="scale(1,-1)" /><rect
     style="opacity:0.35;fill:none;stroke:url(#linearGradient3058-5);stroke-width:1;stroke-linecap:round;stroke-linejoin:round;stroke-miterlimit:4;stroke-dasharray:none;stroke-dashoffset:0;stroke-opacity:1"
     id="rect6741-2"
     y="6.4999952"
     x="5.5000153"
     ry="3"
     rx="3"
     height="37"
     width="37" /><path
     style="color:#000000;font-variation-settings:normal;clip-rule:nonzero;display:inline;overflow:visible;visibility:visible;opacity:0.15;isolation:auto;mix-blend-mode:normal;color-interpolation:sRGB;color-interpolation-filters:linearRGB;solid-color:#000000;solid-opacity:1;vector-effect:none;fill:#002e99;fill-opacity:1;fill-rule:nonzero;stroke:none;stroke-width:1;stroke-linecap:butt;stroke-linejoin:miter;stroke-miterlimit:4;stroke-dasharray:none;stroke-dashoffset:0;stroke-opacity:1;-inkscape-stroke:none;marker:none;color-rendering:auto;image-rendering:auto;shape-rendering:auto;text-rendering:auto;enable-background:accumulate;stop-color:#000000;stop-opacity:1"
     id="path3483"
     d="m 26.042969,15.027344 c -2.362913,0 -4.402239,1.25303 -5.63086,3.08789 -0.572826,-0.227132 -1.122002,-0.519531 -1.773437,-0.519531 -2.784081,0 -5.058594,2.288712 -5.058594,5.080078 0,0.273385 0.06357,0.508437 0.105469,0.757813 -1.568835,1.310526 -2.658203,3.199353 -2.658203,5.404297 0,3.932344 3.180399,7.134765 7.099609,7.134765 h 11.746094 c 3.919213,0 7.099609,-3.202422 7.099609,-7.134765 0,-2.855323 -1.714085,-5.254905 -4.134765,-6.392579 0.01308,-0.179926 0.04883,-0.358245 0.04883,-0.539062 10e-7,-3.783502 -3.072233,-6.878906 -6.84375,-6.878906 z" /><path
     style="color:#000000;font-variation-settings:normal;clip-rule:nonzero;display:inline;overflow:visible;visibility:visible;opacity:0.3;isolation:auto;mix-blend-mode:normal;color-interpolation:sRGB;color-interpolation-filters:linearRGB;solid-color:#000000;solid-opacity:1;vector-effect:none;fill:#002e99;fill-opacity:1;fill-rule:nonzero;stroke:none;stroke-width:1;stroke-linecap:butt;stroke-linejoin:miter;stroke-miterlimit:4;stroke-dasharray:none;stroke-dashoffset:0;stroke-opacity:1;-inkscape-stroke:none;marker:none;color-rendering:auto;image-rendering:auto;shape-rendering:auto;text-rendering:auto;enable-background:accumulate;stop-color:#000000;stop-opacity:1"
     id="rect4519-8"
     d="m 26.04257,16.000002 c -2.273369,0 -4.242191,1.309233 -5.218085,3.209467 -0.632512,-0.404176 -1.381267,-0.641881 -2.186171,-0.641881 -2.256134,0 -4.085101,1.839224 -4.085101,4.108104 0,0.360717 0.05673,0.709701 0.14361,1.043049 -1.629457,1.105216 -2.696811,2.985449 -2.696811,5.119073 0,3.413834 2.732937,6.162186 6.127656,6.162186 H 29.87236 c 3.394722,0 6.127652,-2.748352 6.127652,-6.162186 0,-2.726084 -1.750031,-5.02443 -4.180858,-5.841211 0.06596,-0.354297 0.09575,-0.717625 0.09575,-1.091178 C 31.914904,18.643925 29.28578,16 26.042577,16 Z" /><path
     style="color:#000000;display:inline;overflow:visible;visibility:visible;fill:#ffffff;fill-opacity:1;fill-rule:nonzero;stroke:none;stroke-width:1;stroke-linecap:butt;stroke-linejoin:miter;stroke-miterlimit:4;stroke-dasharray:none;stroke-dashoffset:0;stroke-opacity:1;marker:none;enable-background:accumulate"
     id="rect4519-7"
     d="m 26.04257,15.000002 c -2.273369,0 -4.242191,1.309233 -5.218085,3.209467 -0.632512,-0.404176 -1.381267,-0.641881 -2.186171,-0.641881 -2.256134,0 -4.085101,1.839224 -4.085101,4.108104 0,0.360717 0.05673,0.709701 0.14361,1.043049 -1.629457,1.105216 -2.696811,2.985449 -2.696811,5.119073 0,3.413834 2.732937,6.162186 6.127656,6.162186 H 29.87236 c 3.394722,0 6.127652,-2.748352 6.127652,-6.162186 0,-2.726084 -1.750031,-5.02443 -4.180858,-5.841211 0.06596,-0.354297 0.09575,-0.717625 0.09575,-1.091178 C 31.914904,17.643925 29.28578,15 26.042577,15 Z" /><path
     id="rect4519-7-3-0"
     style="color:#000000;font-variation-settings:normal;display:inline;overflow:visible;visibility:visible;opacity:0.07;vector-effect:none;fill:#002e99;fill-opacity:1;fill-rule:nonzero;stroke:none;stroke-width:1;stroke-linecap:butt;stroke-linejoin:miter;stroke-miterlimit:4;stroke-dasharray:none;stroke-dashoffset:0;stroke-opacity:1;-inkscape-stroke:none;marker:none;enable-background:accumulate;stop-color:#000000;stop-opacity:1"
     d="M 12.033203,28.480469 C 12.351264,31.589615 14.948431,34 18.126953,34 h 11.746094 c 3.178525,0 5.775689,-2.410385 6.09375,-5.519531 -1.239333,2.086522 -3.501516,3.492187 -6.09375,3.492187 H 18.126953 c -2.592232,0 -4.854417,-1.405665 -6.09375,-3.492187 z" /><path
     id="rect4519-7-3"
     style="color:#000000;font-variation-settings:normal;display:inline;overflow:visible;visibility:visible;opacity:0.15;vector-effect:none;fill:#002e99;fill-opacity:1;fill-rule:nonzero;stroke:none;stroke-width:1;stroke-linecap:butt;stroke-linejoin:miter;stroke-miterlimit:4;stroke-dasharray:none;stroke-dashoffset:0;stroke-opacity:1;-inkscape-stroke:none;marker:none;enable-background:accumulate;stop-color:#000000;stop-opacity:1"
     d="m 31.894531,20.419922 c -0.01556,0.195033 -0.04086,0.386499 -0.07617,0.576172 0.0311,0.01045 0.06093,0.02423 0.0918,0.03516 7.71e-4,-0.04197 0.0039,-0.08277 0.0039,-0.125 0,-0.163459 -0.0066,-0.326226 -0.01953,-0.486328 z m -17.30664,0.748047 c -0.02049,0.166772 -0.03516,0.335464 -0.03516,0.507812 0,0.04872 0.0039,0.09625 0.0059,0.144531 0.04645,-0.03346 0.09126,-0.0694 0.138672,-0.101562 -0.04665,-0.179005 -0.08423,-0.363363 -0.109375,-0.550781 z m 21.392578,6.15625 C 35.735052,30.508604 33.104682,33 29.873047,33 H 18.126953 C 14.899985,33 12.273423,30.515675 12.021484,27.337891 12.008391,27.503152 12,27.669203 12,27.837891 12,31.251721 14.732238,34 18.126953,34 H 29.873047 C 33.267765,34 36,31.251721 36,27.837891 c 0,-0.173034 -0.0057,-0.344354 -0.01953,-0.513672 z" /></svg>
