<?xml version="1.0" encoding="UTF-8" standalone="no"?>
<svg
   version="1.1"
   id="svg4332"
   height="64px"
   width="64px"
   xmlns:xlink="http://www.w3.org/1999/xlink"
   xmlns="http://www.w3.org/2000/svg"
   xmlns:svg="http://www.w3.org/2000/svg"
   xmlns:rdf="http://www.w3.org/1999/02/22-rdf-syntax-ns#"
   xmlns:cc="http://creativecommons.org/ns#"
   xmlns:dc="http://purl.org/dc/elements/1.1/">
  <defs
     id="defs4334">
    <linearGradient
       y2="42.091705"
       x2="23.99999"
       y1="5.9093657"
       x1="23.99999"
       gradientTransform="matrix(1.4324324,0,0,1.4362832,-2.3783747,-2.4707827)"
       gradientUnits="userSpaceOnUse"
       id="linearGradient3904"
       xlink:href="#linearGradient4270" />
    <linearGradient
       id="linearGradient4270">
      <stop
         id="stop4272"
         style="stop-color:#ffffff;stop-opacity:1"
         offset="0" />
      <stop
         id="stop4274"
         style="stop-color:#ffffff;stop-opacity:0.23529412"
         offset="0.0348749" />
      <stop
         id="stop4276"
         style="stop-color:#ffffff;stop-opacity:0.15686275"
         offset="0.96216321" />
      <stop
         id="stop4278"
         style="stop-color:#ffffff;stop-opacity:0.39215687"
         offset="1" />
    </linearGradient>
    <linearGradient
       id="linearGradient3688-166-749-654">
      <stop
         offset="0"
         style="stop-color:#181818;stop-opacity:1"
         id="stop3088" />
      <stop
         offset="1"
         style="stop-color:#181818;stop-opacity:0"
         id="stop3090" />
    </linearGradient>
    <linearGradient
       id="linearGradient3702-501-757-795">
      <stop
         offset="0"
         style="stop-color:#181818;stop-opacity:0"
         id="stop3100" />
      <stop
         offset="0.5"
         style="stop-color:#181818;stop-opacity:1"
         id="stop3102" />
      <stop
         offset="1"
         style="stop-color:#181818;stop-opacity:0"
         id="stop3104" />
    </linearGradient>
    <radialGradient
       cx="4.9929786"
       cy="43.5"
       r="2.5"
       fx="4.9929786"
       fy="43.5"
       id="radialGradient3337-2-2"
       xlink:href="#linearGradient3688-166-749-654"
       gradientUnits="userSpaceOnUse"
       gradientTransform="matrix(2.4045407,0,0,0.99999998,41.985755,15.500001)" />
    <radialGradient
       cx="4.9929786"
       cy="43.5"
       r="2.5"
       fx="4.9929786"
       fy="43.5"
       id="radialGradient3339-1-4"
       xlink:href="#linearGradient3688-166-749-654"
       gradientUnits="userSpaceOnUse"
       gradientTransform="matrix(2.4045407,0,0,0.99999998,-22.014244,-102.5)" />
    <linearGradient
       x1="25.058096"
       y1="47.027729"
       x2="25.058096"
       y2="39.999443"
       id="linearGradient6394"
       xlink:href="#linearGradient3702-501-757-795"
       gradientUnits="userSpaceOnUse"
       gradientTransform="matrix(1.5714286,0,0,0.7142857,-5.7142853,27.928572)" />
    <linearGradient
       xlink:href="#linearGradient909-3"
       id="linearGradient899"
       x1="31.781376"
       y1="4.9266648"
       x2="31.781376"
       y2="59.148476"
       gradientUnits="userSpaceOnUse"
       gradientTransform="translate(0,-64)" />
    <linearGradient
       id="linearGradient909-3">
      <stop
         id="stop901-6"
         style="stop-color:#64baff;stop-opacity:1"
         offset="0" />
      <stop
         id="stop907-7"
         style="stop-color:#3689e6;stop-opacity:1"
         offset="1" />
    </linearGradient>
  </defs>
  <metadata
     id="metadata4337">
    <rdf:RDF>
      <cc:Work
         rdf:about="">
        <dc:format>image/svg+xml</dc:format>
        <dc:type
           rdf:resource="http://purl.org/dc/dcmitype/StillImage" />
      </cc:Work>
    </rdf:RDF>
  </metadata>
  <g
     id="g866">
    <rect
       style="opacity:0.6;fill:url(#radialGradient3337-2-2);fill-opacity:1;stroke:none;stroke-width:1.06199"
       id="rect2801-5-5-7-9"
       y="56.5"
       x="54"
       height="5"
       width="6" />
    <rect
       style="opacity:0.6;fill:url(#radialGradient3339-1-4);fill-opacity:1;stroke:none;stroke-width:1.06199"
       id="rect3696-3-0-3-7"
       transform="scale(-1)"
       y="-61.5"
       x="-10"
       height="5"
       width="6" />
    <rect
       style="opacity:0.6;fill:url(#linearGradient6394);fill-opacity:1;stroke:none;stroke-width:1.06199"
       id="rect3700-5-6-8-4"
       y="56.5"
       x="10"
       height="5.0000005"
       width="44" />
  </g>
  <rect
     width="55"
     height="55"
     rx="6"
     ry="6"
     x="4.5"
     y="-59.5"
     id="rect5505-21-3-8-5-2-9"
     style="color:#000000;display:inline;overflow:visible;visibility:visible;fill:url(#linearGradient899);fill-opacity:1;fill-rule:nonzero;stroke:#002e99;stroke-width:1;stroke-opacity:0.5;marker:none;enable-background:accumulate"
     transform="scale(1,-1)" />
  <rect
     style="opacity:0.3;fill:none;stroke:url(#linearGradient3904);stroke-width:1;stroke-linecap:round;stroke-linejoin:round;stroke-miterlimit:4;stroke-dasharray:none;stroke-dashoffset:0;stroke-opacity:1"
     id="rect6741"
     y="5.428761"
     x="5.5"
     ry="5"
     rx="5"
     height="53.142479"
     width="53" />
  <path
     d="m 34.894531,18.019531 c -3.260662,0 -6.068179,1.75504 -7.726562,4.31836 -0.851746,-0.391386 -1.767244,-0.669922 -2.763672,-0.669922 -3.730916,0 -6.767579,3.068699 -6.767578,6.818359 0,0.389657 0.08489,0.736742 0.148437,1.095703 -2.274875,1.783122 -3.765625,4.536543 -3.765625,7.66211 0,5.373204 4.32202,9.736328 9.66211,9.736328 h 16.636718 c 5.340095,0 9.66211,-4.363125 9.66211,-9.736328 0,-4.00207 -2.441843,-7.360468 -5.875,-8.855469 0.03354,-0.331301 0.08789,-0.659839 0.08789,-0.996094 0,-5.16014 -4.169476,-9.373047 -9.298828,-9.373047 z"
     id="path4298"
     style="color:#000000;clip-rule:nonzero;display:inline;overflow:visible;visibility:visible;opacity:0.15;isolation:auto;mix-blend-mode:normal;color-interpolation:sRGB;color-interpolation-filters:linearRGB;solid-color:#000000;solid-opacity:1;fill:#002e99;fill-opacity:1;fill-rule:nonzero;stroke:none;stroke-width:1;stroke-linecap:butt;stroke-linejoin:miter;stroke-miterlimit:4;stroke-dasharray:none;stroke-dashoffset:0;stroke-opacity:1;marker:none;color-rendering:auto;image-rendering:auto;shape-rendering:auto;text-rendering:auto;enable-background:accumulate" />
  <path
     d="m 34.893624,19.000003 c -3.220606,0 -6.009771,1.860489 -7.392288,4.560821 -0.896058,-0.574355 -1.956794,-0.912146 -3.097075,-0.912146 -3.19619,0 -5.787227,2.613634 -5.787227,5.837832 0,0.512597 0.08037,1.008522 0.203447,1.482227 C 16.512085,31.539307 15,34.211218 15,37.24321 15,42.094447 18.871661,46 23.680846,46 H 40.319159 C 45.128349,46 49,42.094447 49,37.24321 49,33.3693 46.520789,30.10323 43.077118,28.942541 43.170558,28.439066 43.212764,27.922759 43.212764,27.39192 43.212764,22.757157 39.488171,19 34.893633,19 Z"
     id="rect4519-3"
     style="color:#000000;clip-rule:nonzero;display:inline;overflow:visible;visibility:visible;opacity:0.3;isolation:auto;mix-blend-mode:normal;color-interpolation:sRGB;color-interpolation-filters:linearRGB;solid-color:#000000;solid-opacity:1;fill:#002e99;fill-opacity:1;fill-rule:nonzero;stroke:none;stroke-width:1;stroke-linecap:butt;stroke-linejoin:miter;stroke-miterlimit:4;stroke-dasharray:none;stroke-dashoffset:0;stroke-opacity:1;marker:none;color-rendering:auto;image-rendering:auto;shape-rendering:auto;text-rendering:auto;enable-background:accumulate" />
  <path
     d="m 34.893624,18.000003 c -3.220606,0 -6.009771,1.860489 -7.392288,4.560821 -0.896058,-0.574355 -1.956794,-0.912146 -3.097075,-0.912146 -3.19619,0 -5.787227,2.613634 -5.787227,5.837832 0,0.512597 0.08037,1.008522 0.203447,1.482227 C 16.512085,30.539307 15,33.211218 15,36.24321 15,41.094447 18.871661,45 23.680846,45 H 40.319159 C 45.128349,45 49,41.094447 49,36.24321 49,32.3693 46.520789,29.10323 43.077118,27.942541 43.170558,27.439066 43.212764,26.922759 43.212764,26.39192 43.212764,21.757157 39.488171,18 34.893633,18 Z"
     id="rect4519"
     style="color:#000000;display:inline;overflow:visible;visibility:visible;fill:#ffffff;fill-opacity:1;fill-rule:nonzero;stroke:none;stroke-width:1;stroke-linecap:butt;stroke-linejoin:miter;stroke-miterlimit:4;stroke-dasharray:none;stroke-dashoffset:0;stroke-opacity:1;marker:none;enable-background:accumulate" />
  <path
     id="rect4519-9"
     style="color:#000000;display:inline;overflow:visible;visibility:visible;fill:#002e99;fill-opacity:1;fill-rule:nonzero;stroke:none;stroke-width:1;stroke-linecap:butt;stroke-linejoin:miter;stroke-miterlimit:4;stroke-dasharray:none;stroke-dashoffset:0;stroke-opacity:1;marker:none;enable-background:accumulate;font-variation-settings:normal;opacity:0.07;vector-effect:none;-inkscape-stroke:none;stop-color:#000000;stop-opacity:1"
     d="M 15.134766 37.775391 C 15.849637 41.890383 19.391365 45 23.681641 45 L 40.318359 45 C 44.608639 45 48.150364 41.890383 48.865234 37.775391 C 47.247388 40.86751 44.031743 42.980469 40.318359 42.980469 L 23.681641 42.980469 C 19.968261 42.980469 16.752613 40.86751 15.134766 37.775391 z " />
  <path
     id="rect4519-1"
     style="color:#000000;display:inline;overflow:visible;visibility:visible;fill:#002e99;fill-opacity:1;fill-rule:nonzero;stroke:none;stroke-width:1;stroke-linecap:butt;stroke-linejoin:miter;stroke-miterlimit:4;stroke-dasharray:none;stroke-dashoffset:0;stroke-opacity:1;marker:none;enable-background:accumulate;font-variation-settings:normal;opacity:0.15;vector-effect:none;-inkscape-stroke:none;stop-color:#000000;stop-opacity:1"
     d="M 43.193359 25.853516 C 43.175305 26.222612 43.142184 26.587671 43.076172 26.943359 C 43.114014 26.956114 43.149893 26.973067 43.1875 26.986328 C 43.200057 26.789673 43.212891 26.593297 43.212891 26.392578 C 43.212891 26.211368 43.204576 26.03187 43.193359 25.853516 z M 18.642578 26.972656 C 18.627932 27.142021 18.617188 27.31313 18.617188 27.486328 C 18.617188 27.689872 18.63131 27.889951 18.654297 28.087891 C 18.709693 28.048246 18.763957 28.007093 18.820312 27.96875 C 18.73666 27.646785 18.674947 27.313408 18.642578 26.972656 z M 15.015625 35.746094 C 15.006548 35.910986 15 36.076934 15 36.244141 C 15 41.095373 18.87246 45 23.681641 45 L 40.318359 45 C 45.127545 45 49 41.095373 49 36.244141 C 49 36.090589 48.988165 35.938658 48.980469 35.787109 C 48.703586 40.382806 44.946253 44 40.318359 44 L 23.681641 44 C 19.039888 44 15.272385 40.361417 15.015625 35.746094 z " />
</svg>
