<?xml version="1.0" encoding="UTF-8" standalone="no"?>
<svg
   width="16"
   version="1.1"
   id="svg7384"
   height="16"
   xmlns="http://www.w3.org/2000/svg"
   xmlns:svg="http://www.w3.org/2000/svg"
   xmlns:rdf="http://www.w3.org/1999/02/22-rdf-syntax-ns#"
   xmlns:cc="http://creativecommons.org/ns#"
   xmlns:dc="http://purl.org/dc/elements/1.1/">
  <metadata
     id="metadata90">
    <rdf:RDF>
      <cc:Work
         rdf:about="">
        <dc:format>image/svg+xml</dc:format>
        <dc:type
           rdf:resource="http://purl.org/dc/dcmitype/StillImage" />
        <dc:title>elementary Symbolic Icon Theme</dc:title>
      </cc:Work>
    </rdf:RDF>
  </metadata>
  <title
     id="title9167">elementary Symbolic Icon Theme</title>
  <defs
     id="defs7386" />
  <path
     id="path37"
     d="M 8,2 Z"
     style="color:#000000;clip-rule:nonzero;display:inline;overflow:visible;visibility:visible;opacity:1;isolation:auto;mix-blend-mode:normal;color-interpolation:sRGB;color-interpolation-filters:linearRGB;solid-color:#000000;solid-opacity:1;fill:#333333;fill-opacity:1;fill-rule:nonzero;stroke:none;stroke-width:1;stroke-linecap:butt;stroke-linejoin:miter;stroke-miterlimit:4;stroke-dasharray:none;stroke-dashoffset:0;stroke-opacity:1;marker:none;color-rendering:auto;image-rendering:auto;shape-rendering:auto;text-rendering:auto;enable-background:accumulate" />
  <path
     style="color:#000000;clip-rule:nonzero;display:inline;overflow:visible;visibility:visible;opacity:1;isolation:auto;mix-blend-mode:normal;color-interpolation:sRGB;color-interpolation-filters:linearRGB;solid-color:#000000;solid-opacity:1;fill:#555761;fill-opacity:1;fill-rule:nonzero;stroke:none;stroke-width:1;stroke-linecap:butt;stroke-linejoin:miter;stroke-miterlimit:4;stroke-dasharray:none;stroke-dashoffset:0;stroke-opacity:1;marker:none;color-rendering:auto;image-rendering:auto;shape-rendering:auto;text-rendering:auto;enable-background:accumulate"
     d="m 8.0643321,8 -1.0281817,3.704367 c -0.082003,0.309038 -0.018792,0.639658 0.1709154,0.893953 0.3362096,0.449792 0.9639576,0.534631 1.4021147,0.189493 0.3007934,-0.237827 0.4444444,-0.630002 0.3708179,-1.012356 z"
     id="path2" />
  <g
     transform="translate(-856.487,-207.48659)"
     style="display:inline"
     label="status"
     id="layer9" />
  <g
     transform="translate(-856.487,-207.48659)"
     style="display:inline"
     id="layer10" />
  <g
     transform="translate(-856.487,-207.48659)"
     style="display:inline"
     id="layer13" />
  <g
     transform="translate(-856.487,-207.48659)"
     id="layer14" />
  <g
     transform="translate(-856.487,-207.48659)"
     style="display:inline"
     id="layer15" />
  <g
     transform="translate(-856.487,-207.48659)"
     style="display:inline"
     id="g71291" />
  <path
     id="path1"
     style="fill:#555761;stroke-width:0.999997;stroke-linecap:round;-inkscape-stroke:none"
     d="M 8 1 A 7 7 0 0 0 1 8 A 7 7 0 0 0 8 15 A 7 7 0 0 0 15 8 A 7 7 0 0 0 8 1 z M 8 2 A 6 6 0 0 1 14 8 A 6 6 0 0 1 8 14 A 6 6 0 0 1 2 8 A 6 6 0 0 1 8 2 z " />
  <rect
     style="fill:#555761;stroke-width:1;stroke-linecap:round;-inkscape-stroke:none"
     id="rect2-5"
     width="1"
     height="1.9999999"
     x="9.9503002"
     y="-0.66999292"
     rx="0.5"
     ry="0.5"
     transform="rotate(22.5)" />
  <rect
     style="fill:#555761;stroke-width:1;stroke-linecap:round;-inkscape-stroke:none"
     id="rect2-5-5"
     width="1"
     height="1.9999999"
     x="3.8317723"
     y="5.4529419"
     rx="0.5"
     ry="0.5"
     transform="rotate(-22.5)" />
  <rect
     style="fill:#555761;stroke-width:1;stroke-linecap:round;-inkscape-stroke:none"
     id="rect2-5-5-2-1"
     width="1"
     height="1.9999999"
     x="-4.8242493"
     y="5.456058"
     rx="0.5"
     ry="0.5"
     transform="rotate(-67.5)" />
  <rect
     style="fill:#555761;stroke-width:1;stroke-linecap:round;-inkscape-stroke:none"
     id="rect2-5-5-2-1-7-9"
     width="1"
     height="1.9999999"
     x="9.9471846"
     y="-9.3260145"
     rx="0.5"
     ry="0.5"
     transform="rotate(67.5)" />
</svg>
